<svg width="16" height="16" viewBox="0 0 16 16" fill="none" xmlns="http://www.w3.org/2000/svg">
<path d="M14.7224 1.94522C15.1673 1.50024 15.1673 0.778774 14.7224 0.33379C14.2774 -0.111193 13.5559 -0.111193 13.1109 0.33379L7.52808 5.91665L1.94522 0.333792C1.50024 -0.111192 0.778774 -0.111193 0.33379 0.33379C-0.111193 0.778774 -0.111193 1.50024 0.33379 1.94522L5.91665 7.52808L0.333792 13.1109C-0.111192 13.5559 -0.111193 14.2774 0.33379 14.7224C0.778774 15.1673 1.50024 15.1673 1.94522 14.7224L7.52808 9.13951L13.1109 14.7224C13.5559 15.1673 14.2774 15.1673 14.7224 14.7224C15.1673 14.2774 15.1673 13.5559 14.7224 13.1109L9.13951 7.52808L14.7224 1.94522Z" fill="#1D1D1D"/>
</svg>
